<?xml version="1.0" encoding="utf-8"?>
<!-- Generator: Adobe Illustrator 13.0.2, SVG Export Plug-In . SVG Version: 6.00 Build 14948)  -->
<svg version="1.2" baseProfile="tiny" id="Layer_1" xmlns="http://www.w3.org/2000/svg" xmlns:xlink="http://www.w3.org/1999/xlink"
	 x="0px" y="0px" width="72px" height="72px" viewBox="0 0 72 72" xml:space="preserve">
<g>
	<path fill="#808080" d="M72,68.4c0,1.988-1.611,3.6-3.6,3.6H3.6C1.612,72,0,70.389,0,68.4V3.6C0,1.612,1.612,0,3.6,0h64.8
		C70.389,0,72,1.612,72,3.6V68.4z"/>
	<g>
		<path d="M22.5,49.027h9.479v-9.529h7.994v9.529H49.5v7.992h-9.527v9.48h-7.994v-9.48H22.5V49.027z"/>
	</g>
	<rect x="9" y="10.8" fill="#D20A23" width="54" height="7.2"/>
	<rect x="9" y="18" fill="#1ED21E" width="54" height="7.199"/>
	<rect x="9" y="25.2" fill="#0032DC" width="54" height="7.199"/>
</g>
</svg>
