<?xml version="1.0" encoding="utf-8"?>
<!-- Generator: Adobe Illustrator 13.0.2, SVG Export Plug-In . SVG Version: 6.00 Build 14948)  -->
<svg version="1.2" baseProfile="tiny" id="Layer_1" xmlns="http://www.w3.org/2000/svg" xmlns:xlink="http://www.w3.org/1999/xlink"
	 x="0px" y="0px" width="72px" height="72px" viewBox="0 0 72 72" xml:space="preserve">
<path fill="#808080" d="M72,68.4c0,1.988-1.611,3.6-3.6,3.6H3.6C1.611,72,0,70.389,0,68.4V3.6C0,1.612,1.611,0,3.6,0H68.4
	C70.389,0,72,1.612,72,3.6V68.4z"/>
<rect x="18" y="18" fill="#CCCCCC" width="35.999" height="36"/>
<rect x="7" y="7.033" width="6" height="4"/>
<rect x="17.906" y="7.033" width="6.001" height="4"/>
<rect x="28.812" y="7.033" width="6" height="4"/>
<rect x="39.719" y="7.033" width="6" height="4"/>
<rect x="50.625" y="7.033" width="6" height="4"/>
<rect x="15.375" y="61" width="6" height="4"/>
<rect x="26.281" y="61" width="6.001" height="4"/>
<rect x="37.188" y="61" width="6" height="4"/>
<rect x="48.094" y="61" width="6" height="4"/>
<rect x="59" y="61" width="6" height="4"/>
<rect x="7.016" y="59.016" width="4" height="6"/>
<rect x="7.016" y="48.108" width="4" height="6.001"/>
<rect x="7.016" y="37.203" width="4" height="6"/>
<rect x="7.016" y="26.297" width="4" height="6"/>
<rect x="7.016" y="15.391" width="4" height="6"/>
<rect x="60.983" y="50.641" width="4" height="6"/>
<rect x="60.983" y="39.734" width="4" height="6.001"/>
<rect x="60.983" y="28.829" width="4" height="5.999"/>
<rect x="60.983" y="17.922" width="4" height="6"/>
<rect x="60.983" y="7.016" width="4" height="6"/>
</svg>
