<?xml version="1.0" encoding="utf-8"?>
<!-- Generator: Adobe Illustrator 13.0.2, SVG Export Plug-In . SVG Version: 6.00 Build 14948)  -->
<svg version="1.2" baseProfile="tiny" id="Layer_1" xmlns="http://www.w3.org/2000/svg" xmlns:xlink="http://www.w3.org/1999/xlink"
	 x="0px" y="0px" width="72px" height="72px" viewBox="0 0 72 72" xml:space="preserve">
<g>
	<g>
		<path fill="#808080" d="M72,68.4c0,1.988-1.611,3.6-3.6,3.6H3.6C1.612,72,0,70.389,0,68.4V3.6C0,1.612,1.612,0,3.6,0h64.8
			C70.389,0,72,1.612,72,3.6V68.4z"/>
	</g>
	<path fill="#E6E6E6" d="M51.119,54.2v5.487c0,0.836-0.676,1.513-1.511,1.513H17.353c-0.835,0-1.512-0.677-1.512-1.513V34.992
		c0-0.834,0.677-1.512,1.512-1.512h4.734h0.053c-6.264,0-11.34-5.078-11.34-11.34c0-6.264,5.077-11.34,11.34-11.34
		c6.263,0,11.322,5.287,11.322,11.55v0.087c0-6.263,5.093-11.638,11.357-11.638S56.16,15.877,56.16,22.14
		c0,6.264-5.077,11.34-11.341,11.34h0.019h4.771c0.835,0,1.511,0.677,1.511,1.512v5.441l-0.019-0.039L60.695,36
		c0.278,0,0.505,0.226,0.505,0.504v21.672c0,0.279-0.227,0.505-0.505,0.505l-9.618-4.407L51.119,54.2z"/>
</g>
</svg>
