<?xml version="1.0" encoding="utf-8"?>
<!-- Generator: Adobe Illustrator 13.0.2, SVG Export Plug-In . SVG Version: 6.00 Build 14948)  -->
<svg version="1.2" baseProfile="tiny" id="Layer_1" xmlns="http://www.w3.org/2000/svg" xmlns:xlink="http://www.w3.org/1999/xlink"
	 x="0px" y="0px" width="73.789px" height="72px" viewBox="0 0 73.789 72" xml:space="preserve">
<path fill="#808080" d="M72.916,68.4c0,1.988-1.611,3.6-3.6,3.6H4.515c-1.988,0-3.6-1.611-3.6-3.6V3.6c0-1.988,1.611-3.6,3.6-3.6
	h64.801c1.988,0,3.6,1.612,3.6,3.6V68.4z"/>
<path fill="#F2F2F2" d="M50.955,52.9v5.095c0,0.778-0.629,1.405-1.402,1.405H19.6c-0.775,0-1.404-0.627-1.404-1.405V35.064
	c0-0.775,0.629-1.404,1.404-1.404h4.396h0.049c-5.817,0-10.53-4.715-10.53-10.53c0-5.816,4.713-10.53,10.53-10.53
	c5.816,0,10.513,4.909,10.513,10.725v0.082c0-5.816,4.731-10.806,10.546-10.806c5.816,0,10.53,4.713,10.53,10.53
	c0,5.816-4.714,10.53-10.53,10.53h0.016h4.432c0.773,0,1.402,0.629,1.402,1.404v5.051l-0.017-0.035L59.845,36
	c0.261,0,0.471,0.21,0.471,0.469v20.123c0,0.259-0.21,0.471-0.471,0.471l-8.929-4.095L50.955,52.9z"/>
<polyline fill="none" stroke="#000000" stroke-width="2" stroke-miterlimit="8" points="0.916,55.25 6.583,42.334 12.083,55.169 
	17.583,40.167 23.083,53.164 28.749,44.501 34.083,57 39.75,42 45.083,52.834 50.75,44 56.25,54.334 61.916,39.667 67.25,52.667 
	72.916,42.5 "/>
</svg>
