<?xml version="1.0" encoding="utf-8"?>
<!-- Generator: Adobe Illustrator 13.0.2, SVG Export Plug-In . SVG Version: 6.00 Build 14948)  -->
<svg version="1.2" baseProfile="tiny" id="Layer_1" xmlns="http://www.w3.org/2000/svg" xmlns:xlink="http://www.w3.org/1999/xlink"
	 x="0px" y="0px" width="72px" height="72px" viewBox="0 0 72 72" xml:space="preserve">
<g>
	<linearGradient id="SVGID_1_" gradientUnits="userSpaceOnUse" x1="0" y1="36" x2="72" y2="36">
		<stop  offset="0" style="stop-color:#000000"/>
		<stop  offset="1" style="stop-color:#FFFFFF"/>
	</linearGradient>
	<path fill="url(#SVGID_1_)" d="M72,68.4c0,1.988-1.611,3.6-3.6,3.6H3.6C1.611,72,0,70.389,0,68.4V3.6C0,1.612,1.611,0,3.6,0H68.4
		C70.389,0,72,1.612,72,3.6V68.4z"/>
	<rect x="38.166" y="18.375" transform="matrix(0.559 -0.8292 0.8292 0.559 1.0389 42.7034)" width="5" height="4.001"/>
	<rect x="43.5" y="10.458" transform="matrix(0.559 -0.8292 0.8292 0.559 9.9555 43.6348)" width="5" height="4.001"/>
	<rect x="48.833" y="2.5" transform="matrix(0.559 -0.8292 0.8292 0.559 18.9056 44.5474)" width="5" height="4.001"/>
	<path d="M0,64.251c10.667-0.293,34.917-39.292,34.917-39.292L72,25v4H37.083c0,0-25.417,40.5-37.083,39.251
		C0,67.769,0,64.835,0,64.251z"/>
</g>
</svg>
