<?xml version="1.0" encoding="utf-8"?>
<!-- Generator: Adobe Illustrator 13.0.2, SVG Export Plug-In . SVG Version: 6.00 Build 14948)  -->
<!DOCTYPE svg PUBLIC "-//W3C//DTD SVG 1.1//EN" "http://www.w3.org/Graphics/SVG/1.1/DTD/svg11.dtd">
<svg version="1.1" id="Layer_1" xmlns="http://www.w3.org/2000/svg" xmlns:xlink="http://www.w3.org/1999/xlink" x="0px" y="0px"
	 width="72px" height="72.002px" viewBox="0 0 72 72.002" enable-background="new 0 0 72 72.002" xml:space="preserve">
<g>
	<path fill="#CCCCCC" d="M72,68.401c0,1.992-1.609,3.602-3.602,3.602H3.602C1.609,72.002,0,70.393,0,68.401V3.602
		C0,1.613,1.609,0,3.602,0h64.797C70.391,0,72,1.613,72,3.602V68.401z"/>
	<path d="M70.945,1.055C71.594,1.703,72,2.605,72,3.602v64.799c0,1.992-1.609,3.602-3.602,3.602H3.602
		c-0.992,0-1.898-0.406-2.547-1.055C1.203,70.799,70.773,1.219,70.945,1.055z"/>
	<path fill="#FFFFFF" d="M66.617,57.182c-3.164,8.68-13.031,13.062-22.047,9.781c-4.508-1.641-7.953-4.891-9.867-8.805
		c8.195,2.984,17.008,1.453,19.547-5.539c2.766-7.586-3.555-13.828-11.453-16.703c3.984-1.772,8.711-2.045,13.219-0.407
		C65.031,38.792,69.773,48.495,66.617,57.182z"/>
	<path fill="#666666" d="M23.281,0C24.383,2.289,25,4.852,25,7.562C25,17.195,17.195,25,7.562,25C4.852,25,2.289,24.383,0,23.281
		c0-1.219,0-17.867,0-19.68C0,1.562,1.5,0,3.602,0C5.164,0,22.062,0,23.281,0z"/>
	<path fill="#666666" d="M30,26.062c3.164,3.234,1.375,5.562,4,7.711c-2.5-0.648-5.125-1.711-7.5-3.961
		c-3.281-3.109-2.859-6.484-4.078-7.621C25.75,22.5,27.375,23.375,30,26.062z"/>
	<path fill="#666666" d="M8.438,38.127c-0.109,3.633-2.25,4.188-2.664,7.859c-1.734-1.664-2.461-3.648-2.461-8.172
		c0-4.522,2.562-5.752,2.461-8.202C7.875,31.625,8.562,34.125,8.438,38.127z"/>
	<path fill="#666666" d="M39.25,2.562c4.25,0.242,5.461,2.188,8.125,2.625c-1.664,1.73-3.875,2.312-8.25,2.125
		C34.609,7.121,33.25,5.188,31,5.188C33.5,3,35.938,2.375,39.25,2.562z"/>
	<path fill="#666666" d="M37.219,14.844c4.125,1.859,2.977,3.969,6.391,5.961c-2.484,0.32-4.32,1.172-8.422-0.742
		c-3.75-1.75-3.625-4.375-6.703-5.523C31.383,13.688,33.695,13.25,37.219,14.844z"/>
	<path fill="#666666" d="M20.188,33.938c1.438,3.877,1.062,6.065,0.656,8.737c-0.969-2.172-4.031-3.203-5.281-6.547
		c-1.578-4.237-1.062-6.502-0.984-8.581C16.438,31.125,18.617,29.699,20.188,33.938z"/>
</g>
</svg>
