<?xml version="1.0" encoding="utf-8"?>
<!-- Generator: Adobe Illustrator 13.0.1, SVG Export Plug-In . SVG Version: 6.00 Build 14948)  -->
<svg version="1.2" baseProfile="tiny" id="Layer_1" xmlns="http://www.w3.org/2000/svg" xmlns:xlink="http://www.w3.org/1999/xlink"
	 x="0px" y="0px" width="72px" height="72px" viewBox="0 0 72 72" xml:space="preserve">
<path fill="#808080" d="M72,68.4c0,1.988-1.611,3.6-3.6,3.6H3.6C1.612,72,0,70.389,0,68.4V3.6C0,1.612,1.612,0,3.6,0h64.8
	C70.389,0,72,1.612,72,3.6V68.4z"/>
<g id="XMLID_1_">
	<g>
		<path fill="#8CC63F" d="M57.468,26.48c5.72,3.89,9.47,10.44,9.47,17.87c0,11.931-9.67,21.601-21.6,21.601
			c-3.37,0-6.561-0.771-9.4-2.15c6.76-3.27,11.56-9.96,12.13-17.83c5.72-3.89,9.47-10.44,9.47-17.87
			C57.537,27.55,57.518,27.01,57.468,26.48z"/>
		<path fill="#F9ED33" d="M57.468,26.48c0.05,0.53,0.069,1.07,0.069,1.62c0,7.43-3.75,13.98-9.47,17.87
			c0.05-0.529,0.07-1.069,0.07-1.62c0-8.56-4.98-15.95-12.2-19.45c2.84-1.38,6.03-2.15,9.4-2.15
			C49.838,22.75,54.008,24.13,57.468,26.48z"/>
		<path fill="#DA1C5C" d="M35.938,6.5c11.38,0,20.71,8.81,21.53,19.98c-3.46-2.35-7.63-3.73-12.13-3.73c-3.37,0-6.561,0.77-9.4,2.15
			c-2.84-1.38-6.03-2.15-9.4-2.15c-4.5,0-8.67,1.38-12.13,3.73C15.228,15.31,24.558,6.5,35.938,6.5z"/>
		<path fill="#FFFFFF" d="M48.138,44.35c0,0.551-0.021,1.091-0.07,1.62c-3.46,2.351-7.63,3.73-12.13,3.73s-8.67-1.38-12.13-3.73
			c-0.05-0.529-0.07-1.069-0.07-1.62c0-8.56,4.98-15.95,12.2-19.45C43.157,28.4,48.138,35.79,48.138,44.35z"/>
		<path fill="#AFDFE5" d="M48.067,45.97c-0.57,7.87-5.37,14.561-12.13,17.83c-6.76-3.27-11.56-9.96-12.13-17.83
			c3.46,2.351,7.63,3.73,12.13,3.73S44.607,48.32,48.067,45.97z"/>
		<path fill="#E64097" d="M35.938,24.9c-7.22,3.5-12.2,10.89-12.2,19.45c0,0.551,0.02,1.091,0.07,1.62
			c-5.72-3.89-9.47-10.44-9.47-17.87c0-0.55,0.02-1.09,0.07-1.62c3.46-2.35,7.63-3.73,12.13-3.73
			C29.908,22.75,33.098,23.52,35.938,24.9z"/>
		<path fill="#1B75BC" d="M23.808,45.97c0.57,7.87,5.37,14.561,12.13,17.83c-2.84,1.38-6.03,2.15-9.4,2.15
			c-11.93,0-21.6-9.67-21.6-21.601c0-7.43,3.75-13.979,9.47-17.87c-0.05,0.53-0.07,1.07-0.07,1.62
			C14.337,35.53,18.087,42.08,23.808,45.97z"/>
	</g>
	<g>
	</g>
</g>
</svg>
