<?xml version="1.0" encoding="utf-8"?>
<!-- Generator: Adobe Illustrator 13.0.2, SVG Export Plug-In . SVG Version: 6.00 Build 14948)  -->
<svg version="1.2" baseProfile="tiny" id="Layer_1" xmlns="http://www.w3.org/2000/svg" xmlns:xlink="http://www.w3.org/1999/xlink"
	 x="0px" y="0px" width="72px" height="72px" viewBox="0 0 72 72" xml:space="preserve">
<g>
	<path fill="#808080" d="M72,68.4c0,1.988-1.611,3.6-3.6,3.6H3.6C1.612,72,0,70.389,0,68.4V3.6C0,1.612,1.612,0,3.6,0h64.8
		C70.389,0,72,1.612,72,3.6V68.4z"/>
	<g id="XMLID_2_">
		<g>
			<path fill="#28C728" d="M57.467,26.255c5.721,3.89,9.471,10.439,9.471,17.87c0,11.93-9.67,21.6-21.6,21.6
				c-3.371,0-6.561-0.77-9.4-2.15c6.76-3.27,11.561-9.959,12.13-17.83c5.72-3.889,9.47-10.439,9.47-17.87
				C57.537,27.325,57.518,26.785,57.467,26.255z"/>
			<path fill="#DCDC00" d="M57.467,26.255c0.051,0.529,0.07,1.069,0.07,1.619c0,7.431-3.75,13.981-9.47,17.87
				c0.05-0.529,0.07-1.068,0.07-1.619c0-8.56-4.979-15.95-12.2-19.45c2.84-1.381,6.029-2.15,9.4-2.15
				C49.838,22.525,54.008,23.905,57.467,26.255z"/>
			<path fill="#D22828" d="M35.938,6.275c11.38,0,20.71,8.81,21.529,19.98c-3.459-2.351-7.629-3.73-12.129-3.73
				c-3.371,0-6.561,0.77-9.4,2.15c-2.84-1.381-6.03-2.15-9.4-2.15c-4.5,0-8.67,1.38-12.13,3.73
				C15.228,15.085,24.558,6.275,35.938,6.275z"/>
			<path fill="#FFFFFF" d="M48.138,44.125c0,0.551-0.021,1.09-0.07,1.619c-3.46,2.352-7.63,3.73-12.13,3.73s-8.67-1.379-12.13-3.73
				c-0.05-0.529-0.07-1.068-0.07-1.619c0-8.56,4.98-15.95,12.2-19.45C43.158,28.175,48.138,35.565,48.138,44.125z"/>
			<path fill="#28D2D2" d="M48.067,45.744c-0.569,7.871-5.37,14.561-12.13,17.83c-6.76-3.27-11.56-9.959-12.13-17.83
				c3.46,2.352,7.63,3.73,12.13,3.73S44.607,48.096,48.067,45.744z"/>
			<path fill="#C60ADA" d="M35.938,24.675c-7.22,3.5-12.2,10.89-12.2,19.45c0,0.551,0.02,1.09,0.07,1.619
				c-5.72-3.889-9.47-10.439-9.47-17.87c0-0.55,0.02-1.09,0.07-1.619c3.46-2.351,7.63-3.73,12.13-3.73
				C29.908,22.525,33.098,23.294,35.938,24.675z"/>
			<path fill="#0844C7" d="M23.808,45.744c0.57,7.871,5.37,14.561,12.13,17.83c-2.84,1.381-6.03,2.15-9.4,2.15
				c-11.93,0-21.6-9.67-21.6-21.6c0-7.43,3.75-13.98,9.47-17.87c-0.05,0.529-0.07,1.069-0.07,1.619
				C14.337,35.305,18.087,41.855,23.808,45.744z"/>
		</g>
	</g>
	<path d="M52.374,27.795l-0.029-10.969l-33.967,0.091l15.124,18.501L16.122,55.174h37.629V43.795c0,0-2.514,6.316-4.377,7.377
		c-1.436-0.033-19.998,0-19.998,0L40.251,35.67L30.126,21.045c0,0,17.313,0,18.562,0C50.329,22.009,52.374,27.795,52.374,27.795z"/>
</g>
</svg>
