<?xml version="1.0" encoding="utf-8"?>
<!-- Generator: Adobe Illustrator 13.0.2, SVG Export Plug-In . SVG Version: 6.00 Build 14948)  -->
<svg version="1.2" baseProfile="tiny" id="Layer_1" xmlns="http://www.w3.org/2000/svg" xmlns:xlink="http://www.w3.org/1999/xlink"
	 x="0px" y="0px" width="72px" height="72px" viewBox="0 0 72 72" xml:space="preserve">
<path fill="#808080" d="M72,68.4c0,1.988-1.611,3.6-3.6,3.6H3.6C1.611,72,0,70.389,0,68.4V3.6C0,1.612,1.611,0,3.6,0H68.4
	C70.389,0,72,1.612,72,3.6V68.4z"/>
<rect x="27" y="27" fill="#CCCCCC" width="35.999" height="36"/>
<g>
	<g>
		<rect x="25.938" y="26" width="4" height="2"/>
		<rect x="35.077" y="26" width="4" height="2"/>
		<rect x="44.217" y="26" width="4" height="2"/>
		<rect x="53.357" y="26" width="3.998" height="2"/>
	</g>
	<g>
		<rect x="32.521" y="62.042" width="4" height="2"/>
		<rect x="41.66" y="62.042" width="4" height="2"/>
		<rect x="50.799" y="62.042" width="4" height="2"/>
		<rect x="59.939" y="62.042" width="4" height="2"/>
	</g>
	<g>
		<rect x="25.98" y="60.085" width="2" height="4"/>
		<rect x="25.98" y="50.946" width="2" height="4"/>
		<rect x="25.98" y="41.807" width="2" height="4"/>
		<rect x="25.98" y="32.667" width="2" height="3.999"/>
	</g>
	<g>
		<rect x="62.021" y="53.502" width="2" height="4"/>
		<rect x="62.021" y="44.362" width="2" height="4"/>
		<rect x="62.021" y="35.224" width="2" height="4"/>
		<rect x="62.021" y="26.084" width="2" height="3.999"/>
	</g>
</g>
<rect x="9" y="9" fill="#CCCCCC" width="35.999" height="36"/>
<g>
	<g>
		<rect x="7.917" y="7.958" width="4" height="2"/>
		<rect x="17.056" y="7.958" width="4" height="2"/>
		<rect x="26.196" y="7.958" width="4" height="2"/>
		<rect x="35.335" y="7.958" width="4" height="2"/>
	</g>
	<g>
		<rect x="14.5" y="44" width="4" height="2"/>
		<rect x="23.64" y="44" width="4" height="2"/>
		<rect x="32.778" y="44" width="4" height="2"/>
		<rect x="41.919" y="44" width="3.999" height="2"/>
	</g>
	<g>
		<rect x="7.959" y="42.043" width="2" height="4"/>
		<rect x="7.959" y="32.904" width="2" height="4"/>
		<rect x="7.959" y="23.765" width="2" height="4"/>
		<rect x="7.959" y="14.625" width="2" height="3.999"/>
	</g>
	<g>
		<rect x="44.001" y="35.46" width="2" height="4"/>
		<rect x="44.001" y="26.32" width="2" height="4"/>
		<rect x="44.001" y="17.182" width="2" height="4"/>
		<rect x="44.001" y="8.042" width="2" height="3.999"/>
	</g>
</g>
</svg>
