<?xml version="1.0" encoding="utf-8"?>
<!-- Generator: Adobe Illustrator 13.0.2, SVG Export Plug-In . SVG Version: 6.00 Build 14948)  -->
<svg version="1.2" baseProfile="tiny" id="Layer_1" xmlns="http://www.w3.org/2000/svg" xmlns:xlink="http://www.w3.org/1999/xlink"
	 x="0px" y="0px" width="72px" height="72px" viewBox="0 0 72 72" xml:space="preserve">
<g>
	<rect x="23.76" fill="#28C728" width="24.48" height="72"/>
	<path fill="#D22828" d="M23.998,72H3.6C1.612,72,0,70.389,0,68.4V3.6C0,1.612,1.612,0,3.6,0h20.397V72z"/>
	<path fill="#0844C7" d="M48.002,0H68.4C70.389,0,72,1.611,72,3.6V68.4c0,1.988-1.611,3.6-3.6,3.6H48.002V0z"/>
	<g>
		<polygon points="36.728,51.119 20.88,51.119 20.878,35.271 		"/>
		<polygon points="35.272,20.882 51.122,20.881 51.122,36.729 		"/>
		<rect x="33.611" y="24.939" transform="matrix(-0.7068 -0.7074 0.7074 -0.7068 35.6215 87.0565)" width="4.484" height="22.413"/>
	</g>
</g>
</svg>
