<?xml version="1.0" encoding="utf-8"?>
<!-- Generator: Adobe Illustrator 13.0.2, SVG Export Plug-In . SVG Version: 6.00 Build 14948)  -->
<svg version="1.2" baseProfile="tiny" id="Layer_1" xmlns="http://www.w3.org/2000/svg" xmlns:xlink="http://www.w3.org/1999/xlink"
	 x="0px" y="0px" width="72px" height="72px" viewBox="0 0 72 72" xml:space="preserve">
<path fill="#808080" d="M72,68.4c0,1.988-1.611,3.6-3.6,3.6H3.6C1.612,72,0,70.389,0,68.4V3.6C0,1.612,1.612,0,3.6,0h64.8
	C70.389,0,72,1.612,72,3.6V68.4z"/>
<linearGradient id="SVGID_1_" gradientUnits="userSpaceOnUse" x1="30.5615" y1="14.6763" x2="43.3115" y2="28.4263">
	<stop  offset="0" style="stop-color:#F2F2F2"/>
	<stop  offset="1" style="stop-color:#999999"/>
</linearGradient>
<polygon fill="url(#SVGID_1_)" stroke="#000000" stroke-width="2" stroke-linecap="round" stroke-linejoin="round" points="
	43.226,29.036 11.401,29.036 29.775,13.125 61.598,13.125 "/>
<linearGradient id="SVGID_2_" gradientUnits="userSpaceOnUse" x1="11.8125" y1="29.6904" x2="43.3125" y2="60.6904">
	<stop  offset="0" style="stop-color:#F2F2F2"/>
	<stop  offset="1" style="stop-color:#666666"/>
</linearGradient>
<rect x="11.428" y="28.999" fill="url(#SVGID_2_)" stroke="#000000" stroke-width="2" stroke-linecap="round" stroke-linejoin="round" width="31.697" height="31.821"/>
<linearGradient id="SVGID_3_" gradientUnits="userSpaceOnUse" x1="43.8066" y1="29.436" x2="61.3066" y2="44.936">
	<stop  offset="0" style="stop-color:#CCCCCC"/>
	<stop  offset="1" style="stop-color:#4D4D4D"/>
</linearGradient>
<polygon fill="url(#SVGID_3_)" stroke="#000000" stroke-width="2" stroke-linecap="round" stroke-linejoin="round" points="
	43.131,29.052 43.131,60.875 61.599,44.98 61.599,13.157 "/>
</svg>
