<?xml version="1.0" encoding="utf-8"?>
<!-- Generator: Adobe Illustrator 13.0.2, SVG Export Plug-In . SVG Version: 6.00 Build 14948)  -->
<svg version="1.2" baseProfile="tiny" id="Layer_1" xmlns="http://www.w3.org/2000/svg" xmlns:xlink="http://www.w3.org/1999/xlink"
	 x="0px" y="0px" width="72px" height="72px" viewBox="0 0 72 72" xml:space="preserve">
<path fill="#808080" d="M72,68.4c0,1.988-1.611,3.6-3.6,3.6H3.6C1.612,72,0,70.389,0,68.4V3.6C0,1.612,1.612,0,3.6,0h64.8
	C70.389,0,72,1.612,72,3.6V68.4z"/>
<linearGradient id="SVGID_1_" gradientUnits="userSpaceOnUse" x1="15.8999" y1="31.9795" x2="56.0996" y2="31.9795">
	<stop  offset="0" style="stop-color:#4D4D4D"/>
	<stop  offset="0.0142" style="stop-color:#555555"/>
	<stop  offset="0.1022" style="stop-color:#888888"/>
	<stop  offset="0.179" style="stop-color:#ADADAD"/>
	<stop  offset="0.2409" style="stop-color:#C4C4C4"/>
	<stop  offset="0.2802" style="stop-color:#CCCCCC"/>
	<stop  offset="0.4642" style="stop-color:#A9A9A9"/>
	<stop  offset="0.8696" style="stop-color:#515151"/>
	<stop  offset="1" style="stop-color:#333333"/>
</linearGradient>
<path fill="url(#SVGID_1_)" stroke="#000000" stroke-width="2" stroke-linecap="round" stroke-linejoin="round" d="M56.1,52.079
	c0-4.439-8.999-8.039-20.1-8.039c-11.101,0-20.1,3.6-20.1,8.039V19.92c0-4.44,8.999-8.04,20.1-8.04c11.101,0,20.1,3.6,20.1,8.04
	V52.079z"/>
<linearGradient id="SVGID_2_" gradientUnits="userSpaceOnUse" x1="15.8999" y1="40.0195" x2="56.0996" y2="40.0195">
	<stop  offset="0" style="stop-color:#4D4D4D"/>
	<stop  offset="0.1666" style="stop-color:#7E7E7E"/>
	<stop  offset="0.3382" style="stop-color:#ABABAB"/>
	<stop  offset="0.492" style="stop-color:#CBCBCB"/>
	<stop  offset="0.6208" style="stop-color:#DEDEDE"/>
	<stop  offset="0.7088" style="stop-color:#E6E6E6"/>
	<stop  offset="0.7375" style="stop-color:#DFDFDF"/>
	<stop  offset="0.7766" style="stop-color:#CECECE"/>
	<stop  offset="0.8216" style="stop-color:#B1B1B1"/>
	<stop  offset="0.8711" style="stop-color:#898989"/>
	<stop  offset="0.9242" style="stop-color:#565656"/>
	<stop  offset="0.9795" style="stop-color:#191919"/>
	<stop  offset="1" style="stop-color:#000000"/>
</linearGradient>
<path fill="url(#SVGID_2_)" stroke="#000000" stroke-width="2" stroke-linecap="round" stroke-linejoin="round" d="M56.1,52.079
	c0,4.441-8.999,8.041-20.1,8.041c-11.101,0-20.1-3.6-20.1-8.041V19.92c0,4.441,8.999,8.041,20.1,8.041c11.101,0,20.1-3.6,20.1-8.041
	V52.079z"/>
</svg>
