<?xml version="1.0" encoding="utf-8"?>
<!-- Generator: Adobe Illustrator 13.0.1, SVG Export Plug-In . SVG Version: 6.00 Build 14948)  -->
<svg version="1.2" baseProfile="tiny" id="Layer_1" xmlns="http://www.w3.org/2000/svg" xmlns:xlink="http://www.w3.org/1999/xlink"
	 x="0px" y="0px" width="72px" height="72px" viewBox="0 0 72 72" xml:space="preserve">
<g>
	<path fill="#333333" d="M72,68.401c0,1.988-1.611,3.6-3.6,3.6H3.6c-1.988,0-3.6-1.611-3.6-3.6V3.6C0,1.612,1.611,0,3.6,0H68.4
		C70.389,0,72,1.612,72,3.6V68.401z"/>
	<circle fill="#FFFFFF" cx="36" cy="36" r="28.08"/>
	<circle fill="#333333" cx="36.001" cy="36" r="19.8"/>
	<path d="M35.896,36C53.39,53.495,70.845,70.95,70.845,70.95C70.263,71.533,69.521,72,68.296,72h-64.8
		c-0.993,0-1.689-0.249-2.341-0.9L35.896,36z"/>
	<path fill="#FFFFFF" d="M36,36l22.049,22.049c-12.179,12.18-31.92,12.178-44.098,0L36,36z"/>
	<path d="M36,36l11.024,11.025c-6.088,6.088-15.96,6.086-22.049-0.002L36,36z"/>
	<g>
		<path fill="#808080" d="M1.051,70.95C0.468,70.368,0,69.625,0,68.401v-64.8C0,1.612,1.611,0,3.6,0H68.4
			c0.994,0,1.895,0.403,2.546,1.054C70.562,1.438,1.051,70.95,1.051,70.95z"/>
		<g>
			<path fill="#FFFFFF" d="M18.272,53.91c-9.842-9.841-9.842-25.796,0-35.638c9.842-9.841,25.796-9.841,35.637,0L18.272,53.91z"/>
			<path fill="#808080" d="M20.181,52c-8.786-8.786-8.785-23.033,0.001-31.819c8.788-8.788,23.032-8.787,31.819,0L20.181,52z"/>
		</g>
	</g>
</g>
</svg>
