<?xml version="1.0" encoding="utf-8"?>
<!-- Generator: Adobe Illustrator 13.0.2, SVG Export Plug-In . SVG Version: 6.00 Build 14948)  -->
<svg version="1.2" baseProfile="tiny" id="Layer_1" xmlns="http://www.w3.org/2000/svg" xmlns:xlink="http://www.w3.org/1999/xlink"
	 x="0px" y="0px" width="72px" height="72px" viewBox="0 0 72 72" xml:space="preserve">
<g>
	<linearGradient id="SVGID_1_" gradientUnits="userSpaceOnUse" x1="0" y1="36" x2="72" y2="36">
		<stop  offset="0" style="stop-color:#C60ADA"/>
		<stop  offset="0.2637" style="stop-color:#DCDC00"/>
		<stop  offset="0.522" style="stop-color:#28C728"/>
		<stop  offset="0.7692" style="stop-color:#0844C7"/>
		<stop  offset="1" style="stop-color:#D22828"/>
	</linearGradient>
	<path fill="url(#SVGID_1_)" d="M72,68.4c0,1.988-1.611,3.6-3.6,3.6H3.6C1.612,72,0,70.389,0,68.4V3.6C0,1.612,1.612,0,3.6,0h64.8
		C70.389,0,72,1.612,72,3.6V68.4z"/>
	<rect y="34.2" fill="#E6E6E6" width="72" height="3.6"/>
	<polygon fill="#E6E6E6" points="54,60.998 18,60.998 18,24.998 54,6.998 	"/>
	<g>
		<path d="M6.171,25.834h5.839v7.815h6.381v-7.815h5.865v22.334h-5.865v-9.034H12.01v9.034H6.171V25.834z"/>
		<path d="M27.118,40.779l5.556-0.412c0.12,1.066,0.365,1.879,0.734,2.438c0.602,0.904,1.461,1.356,2.578,1.356
			c0.834,0,1.477-0.231,1.928-0.693s0.677-0.998,0.677-1.607c0-0.579-0.215-1.097-0.645-1.554s-1.427-0.889-2.991-1.295
			c-2.561-0.681-4.387-1.584-5.479-2.712c-1.1-1.127-1.649-2.564-1.649-4.312c0-1.147,0.281-2.231,0.844-3.252
			c0.563-1.021,1.41-1.823,2.54-2.407s2.679-0.876,4.646-0.876c2.415,0,4.257,0.53,5.524,1.592s2.021,2.75,2.262,5.065l-5.504,0.381
			c-0.146-1.005-0.453-1.736-0.922-2.193s-1.115-0.686-1.94-0.686c-0.679,0-1.189,0.17-1.533,0.51
			c-0.344,0.341-0.516,0.755-0.516,1.242c0,0.355,0.142,0.675,0.425,0.96c0.275,0.294,0.929,0.568,1.96,0.822
			c2.552,0.65,4.38,1.308,5.484,1.973s1.908,1.49,2.411,2.476c0.502,0.985,0.754,2.087,0.754,3.306c0,1.433-0.335,2.753-1.006,3.961
			c-0.67,1.209-1.606,2.126-2.81,2.75c-1.203,0.625-2.721,0.938-4.551,0.938c-3.214,0-5.439-0.731-6.678-2.194
			C27.981,44.893,27.281,43.033,27.118,40.779z"/>
		<path d="M45.346,25.834h6.104l4.254,16.072l4.199-16.072h5.926l-7.017,22.334h-6.329L45.346,25.834z"/>
	</g>
</g>
</svg>
