<?xml version="1.0" encoding="utf-8"?>
<!-- Generator: Adobe Illustrator 13.0.2, SVG Export Plug-In . SVG Version: 6.00 Build 14948)  -->
<svg version="1.2" baseProfile="tiny" id="Layer_1" xmlns="http://www.w3.org/2000/svg" xmlns:xlink="http://www.w3.org/1999/xlink"
	 x="0px" y="0px" width="72px" height="72px" viewBox="0 0 72 72" xml:space="preserve">
<path fill="#37B34A" d="M72,68.4c0,1.988-1.611,3.6-3.6,3.6H3.6C1.611,72,0,70.389,0,68.4V3.6C0,1.612,1.611,0,3.6,0H68.4
	C70.389,0,72,1.612,72,3.6V68.4z"/>
<path fill="#1B75BB" d="M70.942,1.051C71.596,1.703,72,2.604,72,3.6V68.4c0,1.988-1.612,3.6-3.601,3.6H3.6
	c-0.994,0-1.895-0.402-2.546-1.055C1.204,70.797,70.777,1.215,70.942,1.051z"/>
<path fill="#28C728" d="M72,68.4c0,1.988-1.611,3.6-3.6,3.6H3.6C1.611,72,0,70.389,0,68.4V3.6C0,1.612,1.611,0,3.6,0H68.4
	C70.389,0,72,1.612,72,3.6V68.4z"/>
<path fill="#0844C7" d="M70.942,1.051C71.596,1.704,72,2.604,72,3.6v64.8c0,1.988-1.612,3.6-3.601,3.6H3.6
	c-0.994,0-1.895-0.402-2.546-1.055C1.204,70.797,70.777,1.215,70.942,1.051z"/>
<g>
	<g>
		<path d="M14.062,49.399h-6.98V22.6h6.98V49.399z"/>
	</g>
	<g>
		<path d="M39.904,41.801c0,2.308-0.682,4.15-2.046,5.53c-1.363,1.379-3.27,2.068-5.719,2.068H18.764V22.6h11.188
			c1.447,0,2.708,0.161,3.782,0.483s1.939,0.764,2.597,1.325c0.656,0.561,1.146,1.221,1.469,1.981
			c0.323,0.761,0.483,1.592,0.483,2.494c0,0.98-0.166,1.886-0.5,2.717c-0.334,0.832-0.749,1.515-1.244,2.05
			s-0.993,0.912-1.494,1.131c1.581,0.723,2.786,1.634,3.615,2.736C39.49,38.62,39.904,40.048,39.904,41.801z M31.755,30.316
			c0-1.289-0.367-2.146-1.102-2.572c-0.735-0.425-1.882-0.638-3.44-0.638h-1.47v6.419h1.503c1.593,0,2.742-0.212,3.448-0.638
			C31.401,32.461,31.755,31.605,31.755,30.316z M32.891,41.472c0-2.294-1.436-3.441-4.309-3.441h-2.839v6.864h2.839
			C31.455,44.895,32.891,43.754,32.891,41.472z"/>
	</g>
	<g>
		<path d="M66.92,49.399h-8.518l-8.85-12.548v12.548h-6.98V22.6h6.98v11.988L57.936,22.6h7.581L56.9,35.15L66.92,49.399z"/>
	</g>
</g>
</svg>
