<?xml version="1.0" encoding="utf-8"?>
<!-- Generator: Adobe Illustrator 13.0.2, SVG Export Plug-In . SVG Version: 6.00 Build 14948)  -->
<svg version="1.2" baseProfile="tiny" id="Layer_1" xmlns="http://www.w3.org/2000/svg" xmlns:xlink="http://www.w3.org/1999/xlink"
	 x="0px" y="0px" width="72px" height="72.267px" viewBox="0 0 72 72.267" xml:space="preserve">
<linearGradient id="SVGID_1_" gradientUnits="userSpaceOnUse" x1="0" y1="7.333" x2="72" y2="7.333">
	<stop  offset="0" style="stop-color:#C60ADA"/>
	<stop  offset="0.2637" style="stop-color:#DCDC00"/>
	<stop  offset="0.522" style="stop-color:#28C728"/>
	<stop  offset="0.7692" style="stop-color:#0844C7"/>
	<stop  offset="1" style="stop-color:#D22828"/>
</linearGradient>
<path fill="url(#SVGID_1_)" d="M72,14.4c0,0.6-72,0-72,0V3.6C0,1.612,1.612,0,3.6,0h64.8C70.389,0,72,1.612,72,3.6
	C72,3.6,72,13.8,72,14.4z"/>
<path fill="#0844C7" d="M0,57.866c0-0.6,72,0,72,0v10.8c0,1.988-1.611,3.601-3.6,3.601H3.6c-1.988,0-3.6-1.612-3.6-3.601
	C0,68.666,0,58.466,0,57.866z"/>
<linearGradient id="SVGID_2_" gradientUnits="userSpaceOnUse" x1="0" y1="21.5996" x2="72" y2="21.5996">
	<stop  offset="0" style="stop-color:#FFFFFF"/>
	<stop  offset="1" style="stop-color:#000000"/>
</linearGradient>
<rect y="14.4" fill="url(#SVGID_2_)" width="72" height="14.4"/>
<rect y="28.8" fill="#D42B2B" width="72" height="14.4"/>
<rect y="43.2" fill="#28C728" width="72" height="14.4"/>
<path fill="none" stroke="#000000" stroke-width="4" d="M0,63C8.833,63,21.333,9,31.399,9c4.334,0,6.368,0,9.202,0
	C52.001,9,61.834,62.833,72,62.833"/>
</svg>
