<?xml version="1.0" encoding="utf-8"?>
<!-- Generator: Adobe Illustrator 13.0.1, SVG Export Plug-In . SVG Version: 6.00 Build 14948)  -->
<svg version="1.2" baseProfile="tiny" id="Layer_1" xmlns="http://www.w3.org/2000/svg" xmlns:xlink="http://www.w3.org/1999/xlink"
	 x="0px" y="0px" width="72px" height="72.015px" viewBox="0 0 72 72.015" xml:space="preserve">
<path fill="#808080" d="M72,68.415c0,1.988-1.611,3.6-3.6,3.6H3.6c-1.988,0-3.6-1.611-3.6-3.6v-64.8c0-1.988,1.612-3.6,3.6-3.6h64.8
	c1.988,0,3.6,1.612,3.6,3.6V68.415z"/>
<g>
	<polygon fill="#E6E6E6" points="42.459,24.012 12.929,24.012 29.4,0.015 58.931,0.015 	"/>
	<path fill="#B3B3B3" d="M72,3.349v20.663H42.514L58.984,0.015h9.56c0,0,1.169-0.224,2.376,1.08C71.961,2.22,72,3.349,72,3.349z"/>
	<path fill="#666666" d="M13.013,24.012H0V3.516c0,0,0-1.375,1.083-2.458c1.043-1.043,2.375-1.043,2.375-1.043l26.026,0
		L13.013,24.012z"/>
</g>
<polygon fill="#E6E6E6" points="42.459,48.061 12.929,48.061 29.4,24.062 58.931,24.062 "/>
<polygon fill="#B3B3B3" points="72,48.061 42.514,48.061 58.984,24.062 72,24.062 "/>
<polygon fill="#666666" points="13.013,48.061 0,48.061 0,24.062 29.484,24.062 "/>
<g>
	<polygon fill="#E6E6E6" points="42.459,72.015 12.929,72.015 29.4,48.017 58.931,48.017 	"/>
	<path fill="#B3B3B3" d="M72,68.599c0,0,0,1.168-1.041,2.292c-0.985,1.063-2.291,1.124-2.291,1.124H42.514l16.471-23.998H72V68.599z
		"/>
	<path fill="#666666" d="M13.013,72.015c0,0-9.595,0-9.595,0s-1.333,0-2.375-1.083C0.136,69.988,0,68.767,0,68.767v-20.75h29.484
		L13.013,72.015z"/>
</g>
<rect y="23.479" fill="#808080" width="72" height="1.08"/>
<rect y="47.477" fill="#808080" width="72" height="1.08"/>
</svg>
