<?xml version="1.0" encoding="utf-8"?>
<!-- Generator: Adobe Illustrator 13.0.2, SVG Export Plug-In . SVG Version: 6.00 Build 14948)  -->
<!DOCTYPE svg PUBLIC "-//W3C//DTD SVG 1.1//EN" "http://www.w3.org/Graphics/SVG/1.1/DTD/svg11.dtd">
<svg version="1.1" id="Layer_1" xmlns="http://www.w3.org/2000/svg" xmlns:xlink="http://www.w3.org/1999/xlink" x="0px" y="0px"
	 width="72px" height="72px" viewBox="0 0 72 72" enable-background="new 0 0 72 72" xml:space="preserve">
<g>
	<path fill="#999999" d="M72,68.4c0,1.988-1.611,3.6-3.6,3.6H3.6C1.612,72,0,70.388,0,68.4V3.6C0,1.612,1.612,0,3.6,0h64.8
		C70.389,0,72,1.612,72,3.6V68.4z"/>
	<path fill="#666666" d="M36,72H3.6C1.612,72,0,70.388,0,68.4V3.6C0,1.612,1.612,0,3.6,0H36V72z"/>
	<g>
		<path d="M20.688,41.273h-5.524l-0.768,2.6H9.428l5.919-15.748h5.309l5.917,15.748h-5.096L20.688,41.273z M19.679,37.869
			l-1.738-5.662l-1.72,5.662H19.679z"/>
	</g>
	<g>
		<path d="M46.722,28.125h9.109c1.519,0,2.684,0.377,3.497,1.129c0.812,0.752,1.219,1.682,1.219,2.793c0,0.93-0.29,1.729-0.87,2.395
			c-0.387,0.445-0.952,0.795-1.697,1.053c1.132,0.273,1.964,0.74,2.497,1.402s0.801,1.494,0.801,2.498
			c0,0.816-0.189,1.551-0.569,2.203s-0.899,1.168-1.558,1.547c-0.408,0.236-1.024,0.408-1.848,0.516
			c-1.096,0.143-1.822,0.215-2.181,0.215h-8.4V28.125z M51.631,34.302h2.116c0.759,0,1.287-0.131,1.585-0.393
			c0.297-0.262,0.445-0.639,0.445-1.133c0-0.459-0.148-0.816-0.445-1.074c-0.298-0.258-0.815-0.387-1.553-0.387h-2.148V34.302z
			 M51.631,40.49h2.481c0.838,0,1.429-0.148,1.772-0.445s0.516-0.695,0.516-1.199c0-0.465-0.17-0.84-0.51-1.123
			c-0.341-0.281-0.938-0.424-1.789-0.424h-2.471V40.49z"/>
	</g>
</g>
</svg>
