<?xml version="1.0" encoding="utf-8"?>
<!-- Generator: Adobe Illustrator 13.0.2, SVG Export Plug-In . SVG Version: 6.00 Build 14948)  -->
<svg version="1.2" baseProfile="tiny" id="Layer_1" xmlns="http://www.w3.org/2000/svg" xmlns:xlink="http://www.w3.org/1999/xlink"
	 x="0px" y="0px" width="72px" height="72px" viewBox="0 0 72 72" xml:space="preserve">
<radialGradient id="SVGID_1_" cx="36" cy="36" r="36" gradientUnits="userSpaceOnUse">
	<stop  offset="0" style="stop-color:#FFFFFF"/>
	<stop  offset="1" style="stop-color:#666666"/>
</radialGradient>
<path fill="url(#SVGID_1_)" d="M72,68.4c0,1.988-1.611,3.6-3.6,3.6H3.6C1.612,72,0,70.389,0,68.4V3.6C0,1.612,1.612,0,3.6,0h64.8
	C70.389,0,72,1.612,72,3.6V68.4z"/>
<path d="M70.946,1.055C71.598,1.706,72,2.606,72,3.6v64.8c0,1.988-1.611,3.6-3.6,3.6H3.6c-0.992,0-1.891-0.401-2.542-1.051
	L70.946,1.055z"/>
<path fill="#666666" d="M56.307,15.666c11.246,11.247,11.246,29.482,0,40.729c-11.248,11.248-29.482,11.247-40.728,0L56.307,15.666z
	"/>
<path fill="#B3B3B3" d="M49.943,22.03c7.732,7.732,7.732,20.269,0,28.001s-20.269,7.732-28.001,0L49.943,22.03z"/>
<path fill="#FFFFFF" d="M43.58,28.394c4.215,4.215,4.215,11.059,0,15.273c-4.219,4.218-11.059,4.215-15.274,0L43.58,28.394z"/>
</svg>
