<?xml version="1.0" encoding="utf-8"?>
<!-- Generator: Adobe Illustrator 13.0.2, SVG Export Plug-In . SVG Version: 6.00 Build 14948)  -->
<svg version="1.2" baseProfile="tiny" id="Layer_1" xmlns="http://www.w3.org/2000/svg" xmlns:xlink="http://www.w3.org/1999/xlink"
	 x="0px" y="0px" width="72px" height="72px" viewBox="0 0 72 72" xml:space="preserve">
<path fill="#37B34A" d="M72,68.4c0,1.988-1.611,3.6-3.6,3.6H3.6C1.611,72,0,70.389,0,68.4V3.6C0,1.612,1.611,0,3.6,0H68.4
	C70.389,0,72,1.612,72,3.6V68.4z"/>
<path fill="#1B75BB" d="M70.942,1.051C71.596,1.703,72,2.604,72,3.6V68.4c0,1.988-1.612,3.6-3.601,3.6H3.6
	c-0.994,0-1.895-0.402-2.546-1.055C1.204,70.797,70.777,1.215,70.942,1.051z"/>
<path fill="#28C728" d="M72,68.4c0,1.988-1.611,3.6-3.6,3.6H3.6C1.611,72,0,70.389,0,68.4V3.6C0,1.612,1.611,0,3.6,0H68.4
	C70.389,0,72,1.612,72,3.6V68.4z"/>
<path fill="#0844C7" d="M70.942,1.051C71.596,1.704,72,2.604,72,3.6v64.8c0,1.988-1.612,3.6-3.601,3.6H3.6
	c-0.994,0-1.895-0.402-2.546-1.055C1.204,70.797,70.777,1.215,70.942,1.051z"/>
<g>
	<path d="M53.578,28.471c0,1.504-0.259,2.974-0.776,4.409s-1.353,2.773-2.505,4.014c-1.152,1.241-2.71,2.246-4.673,3.018
		c-1.963,0.772-4.272,1.157-6.929,1.157h-8.027v15.234H18.422V15.697h20.273c2.656,0,4.966,0.391,6.929,1.172
		c1.963,0.781,3.521,1.797,4.673,3.047c1.152,1.25,1.987,2.607,2.505,4.072S53.578,26.947,53.578,28.471z M41.098,28.529
		c0-1.934-0.571-3.256-1.714-3.97c-1.143-0.713-3.188-1.069-6.138-1.069h-2.578v9.785h2.637c2.031,0,3.594-0.127,4.688-0.381
		c1.094-0.253,1.885-0.722,2.373-1.406C40.854,30.805,41.098,29.818,41.098,28.529z"/>
</g>
</svg>
