<?xml version="1.0" encoding="utf-8"?>
<!-- Generator: Adobe Illustrator 13.0.2, SVG Export Plug-In . SVG Version: 6.00 Build 14948)  -->
<svg version="1.2" baseProfile="tiny" id="Layer_1" xmlns="http://www.w3.org/2000/svg" xmlns:xlink="http://www.w3.org/1999/xlink"
	 x="0px" y="0px" width="72px" height="72px" viewBox="0 0 72 72" xml:space="preserve">
<g>
	<rect x="24.12" y="36" fill="#CCCCCC" width="23.76" height="36"/>
	<path fill="#4D4D4D" d="M24.084,36H0v32.4C0,70.389,1.611,72,3.6,72c0.001,0,20.484,0,20.484,0V36z"/>
	<path fill="#1A1A1A" d="M47.834,72H68.4c1.988,0,3.6-1.611,3.6-3.6V36H47.834V72z"/>
	<rect x="24.12" fill="#28C728" width="23.76" height="36"/>
	<path fill="#0844C7" d="M47.916,36H72V3.6C72,1.611,70.389,0,68.4,0c-0.001,0-20.484,0-20.484,0V36z"/>
	<path fill="#D22828" d="M24.166,0H3.6C1.611,0,0,1.611,0,3.6V36h24.166V0z"/>
	<rect y="34.92" width="72" height="2.16"/>
</g>
</svg>
