<?xml version="1.0" encoding="utf-8"?>
<!-- Generator: Adobe Illustrator 13.0.1, SVG Export Plug-In . SVG Version: 6.00 Build 14948)  -->
<svg version="1.2" baseProfile="tiny" id="Layer_1" xmlns="http://www.w3.org/2000/svg" xmlns:xlink="http://www.w3.org/1999/xlink"
	 x="0px" y="0px" width="72px" height="72px" viewBox="0 0 72 72" xml:space="preserve">
<g>
	<path fill="#808080" d="M0,68.4C0,70.389,1.611,72,3.6,72h64.8C70.388,72,72,70.389,72,68.4V3.6C72,1.612,70.388,0,68.399,0H3.6
		C1.611,0,0,1.612,0,3.6V68.4z"/>
	<circle fill="#E6E6E6" cx="36" cy="36" r="31.5"/>
	<g>
		<path fill="#4D4D4D" d="M53.343,11.083c0,0-10.138,12.953-11.665,14.715c-2.674,3.088-4.844,2.582-4.844,2.582
			s1.232,2.062,0.502,3.806c-1.171,2.797-5.469,9.566-5.469,9.566s4.831-6.422,7.117-8.412c1.631-1.418,3.748-0.83,3.748-0.83
			s-1.379-1.75,0.766-5.434C44.674,25.057,53.343,11.083,53.343,11.083z"/>
		<path fill="#4D4D4D" d="M18.121,23.345c0,0,6.046,5.302,7.807,6.828c3.088,2.674,2.583,4.842,2.583,4.842s2.062-1.23,3.807-0.5
			c2.796,1.17,9.565,5.467,9.565,5.467s-6.421-4.83-8.41-7.117c-1.42-1.63-0.833-3.746-0.833-3.746s-1.75,1.378-5.434-0.768
			C25.188,27.177,18.121,23.345,18.121,23.345z"/>
		<path fill="#4D4D4D" d="M33.935,34.43c-0.795,1.141-0.519,2.711,0.62,3.51c1.14,0.795,2.711,0.52,3.508-0.619
			c0.799-1.141,0.522-2.711-0.617-3.51C36.307,33.014,34.734,33.291,33.935,34.43z"/>
	</g>
</g>
</svg>
