<?xml version="1.0" encoding="utf-8"?>
<!-- Generator: Adobe Illustrator 13.0.1, SVG Export Plug-In . SVG Version: 6.00 Build 14948)  -->
<svg version="1.2" baseProfile="tiny" id="Layer_1" xmlns="http://www.w3.org/2000/svg" xmlns:xlink="http://www.w3.org/1999/xlink"
	 x="0px" y="0px" width="72px" height="72px" viewBox="0 0 72 72" xml:space="preserve">
<path fill="#808080" d="M72,68.4c0,1.988-1.611,3.6-3.6,3.6H3.6C1.611,72,0,70.389,0,68.4V3.6C0,1.611,1.611,0,3.6,0H68.4
	C70.389,0,72,1.611,72,3.6V68.4z"/>
<g>
	<g>
		<line fill="none" stroke="#CCCCCC" stroke-width="6" x1="16.907" y1="55.092" x2="55.092" y2="16.907"/>
		<polygon fill="#CCCCCC" points="61.104,27.871 67.298,4.754 44.181,10.948 		"/>
		<polygon fill="#CCCCCC" points="10.896,44.128 4.701,67.244 27.818,61.051 		"/>
	</g>
</g>
<g>
	<g>
		<line fill="none" stroke="#CCCCCC" stroke-width="6" x1="55.092" y1="55.092" x2="16.907" y2="16.907"/>
		<polygon fill="#CCCCCC" points="27.871,10.896 4.754,4.701 10.948,27.818 		"/>
		<polygon fill="#CCCCCC" points="44.128,61.104 67.244,67.298 61.051,44.181 		"/>
	</g>
</g>
</svg>
