<?xml version="1.0" encoding="utf-8"?>
<!-- Generator: Adobe Illustrator 13.0.2, SVG Export Plug-In . SVG Version: 6.00 Build 14948)  -->
<svg version="1.2" baseProfile="tiny" id="Layer_1" xmlns="http://www.w3.org/2000/svg" xmlns:xlink="http://www.w3.org/1999/xlink"
	 x="0px" y="0px" width="72px" height="72px" viewBox="0 0 72 72" xml:space="preserve">
<path fill="#808080" d="M72,68.4c0,1.988-1.611,3.6-3.6,3.6H3.6C1.611,72,0,70.389,0,68.4V3.6C0,1.612,1.611,0,3.6,0H68.4
	C70.389,0,72,1.612,72,3.6V68.4z"/>
<polygon fill="#E6E6E6" stroke="#000000" stroke-width="1.5" stroke-linecap="round" stroke-linejoin="round" points="
	56.371,38.288 39.264,38.288 49.141,29.734 66.248,29.734 "/>
<rect x="39.277" y="38.269" fill="#E6E6E6" stroke="#000000" stroke-width="1.5" stroke-linecap="round" stroke-linejoin="round" width="17.041" height="17.106"/>
<polygon fill="#E6E6E6" stroke="#000000" stroke-width="1.5" stroke-linecap="round" stroke-linejoin="round" points="
	56.321,38.297 56.321,55.404 66.249,46.86 66.249,29.752 "/>
<linearGradient id="SVGID_1_" gradientUnits="userSpaceOnUse" x1="1.0742" y1="59.5918" x2="52.8659" y2="16.1334">
	<stop  offset="0" style="stop-color:#FFFFFF"/>
	<stop  offset="0.1316" style="stop-color:#FBFBFB"/>
	<stop  offset="0.2514" style="stop-color:#F0F0F0"/>
	<stop  offset="0.3666" style="stop-color:#DEDEDE"/>
	<stop  offset="0.4791" style="stop-color:#C4C4C4"/>
	<stop  offset="0.5896" style="stop-color:#A2A2A2"/>
	<stop  offset="0.6985" style="stop-color:#797979"/>
	<stop  offset="0.8063" style="stop-color:#484848"/>
	<stop  offset="0.9105" style="stop-color:#111111"/>
	<stop  offset="0.9396" style="stop-color:#000000"/>
</linearGradient>
<path fill="url(#SVGID_1_)" d="M45.037,11.046C33.501,11.046,29.701,36,29.701,64.8c0,0-25.721,0.021-26.102,0
	C3.6,36,18.75,4.156,41.362,4.156c13.138,0,17.985,7.511,17.985,14.692l8.467,0.023l-11.459,9.451l-12.196-9.542l9.042,0.032
	C53.201,18.813,53.334,11.046,45.037,11.046z"/>
<linearGradient id="SVGID_2_" gradientUnits="userSpaceOnUse" x1="54.3447" y1="31.8574" x2="54.3447" y2="9.405">
	<stop  offset="0" style="stop-color:#4D4D4D"/>
	<stop  offset="1" style="stop-color:#000000"/>
</linearGradient>
<path fill="url(#SVGID_2_)" d="M40.875,12.25c0,0,6.767-8.713,12.125-5.25c5.125,3.312,6.312,7.906,6.348,11.848
	c2.236,0.069,8.467,0.023,8.467,0.023L56.355,32.327c0,0-12.371-13.599-12.196-13.546s9.06,0.032,9.06,0.032
	C53.062,13.125,47.5,8.812,40.875,12.25z"/>
</svg>
