<?xml version="1.0" encoding="utf-8"?>
<!-- Generator: Adobe Illustrator 13.0.2, SVG Export Plug-In . SVG Version: 6.00 Build 14948)  -->
<svg version="1.2" baseProfile="tiny" id="Layer_1" xmlns="http://www.w3.org/2000/svg" xmlns:xlink="http://www.w3.org/1999/xlink"
	 x="0px" y="0px" width="72px" height="72px" viewBox="0 0 72 72" xml:space="preserve">
<g>
	<path fill="#1A1A1A" d="M72,68.4c0,1.988-1.611,3.6-3.6,3.6H3.6C1.611,72,0,70.389,0,68.4V3.6C0,1.611,1.611,0,3.6,0H68.4
		C70.389,0,72,1.611,72,3.6V68.4z"/>
	<path fill="#4D4D4D" d="M63,72H3.6C1.611,72,0,70.389,0,68.4V9h63V72z"/>
	<path fill="#808080" d="M54,72H3.6C1.611,72,0,70.389,0,68.4V18h54V72z"/>
	<path fill="#B3B3B3" d="M45,72H3.6C1.611,72,0,70.389,0,68.4V27h45V72z"/>
	<path fill="#E6E6E6" d="M36,72H3.6C1.611,72,0,70.389,0,68.4V36h36V72z"/>
	<g>
		<path d="M1.852,37.641h30.047v6.867L12.61,64.617h19.991V72H0v-7.125l19.086-19.898H1.852V37.641z"/>
	</g>
</g>
</svg>
